<svg width="50" height="50" viewBox="0 0 50 50" fill="none" xmlns="http://www.w3.org/2000/svg">
<path d="M15.9375 43.5625C15.875 43.5625 15.7917 43.6042 15.7292 43.6042C11.6875 41.6042 8.39583 38.2917 6.375 34.25C6.375 34.1875 6.41667 34.1042 6.41667 34.0417C8.95833 34.7917 11.5833 35.3542 14.1875 35.7917C14.6458 38.4167 15.1875 41.0208 15.9375 43.5625Z" fill="#386FA4"/>
<path d="M43.625 34.2708C41.5625 38.4167 38.125 41.7708 33.9375 43.7917C34.7292 41.1458 35.3958 38.4792 35.8333 35.7917C38.4583 35.3542 41.0417 34.7917 43.5833 34.0417C43.5625 34.125 43.625 34.2083 43.625 34.2708Z" fill="#386FA4"/>
<path d="M43.7917 16.0625C41.1667 15.2708 38.5208 14.625 35.8333 14.1667C35.3958 11.4792 34.75 8.81249 33.9375 6.20833C38.25 8.27083 41.7292 11.75 43.7917 16.0625Z" fill="#386FA4"/>
<path d="M15.9375 6.4375C15.1875 8.97917 14.6458 11.5625 14.2083 14.1875C11.5208 14.6042 8.85418 15.2708 6.20834 16.0625C8.22918 11.875 11.5833 8.4375 15.7292 6.375C15.7917 6.375 15.875 6.4375 15.9375 6.4375Z" fill="#386FA4"/>
<path d="M32.2708 13.7292C27.4375 13.1875 22.5625 13.1875 17.7292 13.7292C18.25 10.875 18.9167 8.02084 19.8542 5.27084C19.8958 5.10417 19.875 4.97917 19.8958 4.8125C21.5417 4.41667 23.2292 4.16667 25 4.16667C26.75 4.16667 28.4583 4.41667 30.0833 4.8125C30.1042 4.97917 30.1042 5.10417 30.1458 5.27084C31.0833 8.04167 31.75 10.875 32.2708 13.7292Z" fill="#386FA4"/>
<path d="M13.7292 32.2708C10.8542 31.75 8.02082 31.0833 5.27082 30.1458C5.10416 30.1042 4.97916 30.125 4.81249 30.1042C4.41666 28.4583 4.16666 26.7708 4.16666 25C4.16666 23.25 4.41666 21.5417 4.81249 19.9167C4.97916 19.8958 5.10416 19.8958 5.27082 19.8542C8.04166 18.9375 10.8542 18.25 13.7292 17.7292C13.2083 22.5625 13.2083 27.4375 13.7292 32.2708Z" fill="#386FA4"/>
<path d="M45.8333 25C45.8333 26.7708 45.5833 28.4583 45.1875 30.1042C45.0208 30.125 44.8958 30.1042 44.7292 30.1458C41.9583 31.0625 39.125 31.75 36.2708 32.2708C36.8125 27.4375 36.8125 22.5625 36.2708 17.7292C39.125 18.25 41.9792 18.9167 44.7292 19.8542C44.8958 19.8958 45.0208 19.9167 45.1875 19.9167C45.5833 21.5625 45.8333 23.25 45.8333 25Z" fill="#386FA4"/>
<path d="M32.2708 36.2708C31.75 39.1458 31.0833 41.9792 30.1458 44.7292C30.1042 44.8958 30.1042 45.0208 30.0833 45.1875C28.4583 45.5833 26.75 45.8333 25 45.8333C23.2292 45.8333 21.5417 45.5833 19.8958 45.1875C19.875 45.0208 19.8958 44.8958 19.8542 44.7292C18.9375 41.9583 18.25 39.1458 17.7292 36.2708C20.1458 36.5417 22.5625 36.7292 25 36.7292C27.4375 36.7292 29.875 36.5417 32.2708 36.2708Z" fill="#386FA4"/>
<path d="M32.8403 32.8403C27.6296 33.4977 22.3703 33.4977 17.1597 32.8403C16.5023 27.6297 16.5023 22.3703 17.1597 17.1597C22.3703 16.5023 27.6296 16.5023 32.8403 17.1597C33.4977 22.3703 33.4977 27.6297 32.8403 32.8403Z" fill="#386FA4"/>
</svg>
