<svg width="50" height="50" viewBox="0 0 50 50" fill="none" xmlns="http://www.w3.org/2000/svg">
<path d="M43.3958 16.6875L29.75 5.77083C27.0833 3.64583 22.9167 3.625 20.2708 5.75L6.625 16.6875C4.66667 18.25 3.47917 21.375 3.89584 23.8333L6.52084 39.5417C7.125 43.0625 10.3958 45.8333 13.9583 45.8333H36.0417C39.5625 45.8333 42.8958 43 43.5 39.5208L46.125 23.8125C46.5 21.375 45.3125 18.25 43.3958 16.6875ZM26.5625 37.5C26.5625 38.3542 25.8542 39.0625 25 39.0625C24.1458 39.0625 23.4375 38.3542 23.4375 37.5V31.25C23.4375 30.3958 24.1458 29.6875 25 29.6875C25.8542 29.6875 26.5625 30.3958 26.5625 31.25V37.5Z" fill="#386FA4"/>
</svg>
