<svg width="50" height="50" viewBox="0 0 50 50" fill="none" xmlns="http://www.w3.org/2000/svg">
<path d="M40.2917 30.1875L38.2083 26.7292C37.7708 25.9583 37.375 24.5 37.375 23.6458V18.375C37.375 13.4792 34.5 9.25 30.3542 7.27084C29.2708 5.35417 27.2708 4.16667 24.9792 4.16667C22.7083 4.16667 20.6667 5.39584 19.5833 7.33334C15.5208 9.35417 12.7083 13.5417 12.7083 18.375V23.6458C12.7083 24.5 12.3125 25.9583 11.875 26.7083L9.77085 30.1875C8.93751 31.5833 8.75001 33.125 9.27085 34.5417C9.77085 35.9375 10.9583 37.0208 12.5 37.5417C16.5417 38.9167 20.7917 39.5833 25.0417 39.5833C29.2917 39.5833 33.5417 38.9167 37.5833 37.5625C39.0417 37.0833 40.1667 35.9792 40.7083 34.5417C41.25 33.1042 41.1042 31.5208 40.2917 30.1875Z" fill="#386FA4"/>
<path d="M30.8958 41.6875C30.0208 44.1042 27.7083 45.8333 25 45.8333C23.3542 45.8333 21.7292 45.1667 20.5833 43.9792C19.9167 43.3542 19.4167 42.5208 19.125 41.6667C19.3958 41.7083 19.6667 41.7292 19.9583 41.7708C20.4375 41.8333 20.9375 41.8958 21.4375 41.9375C22.625 42.0417 23.8333 42.1042 25.0417 42.1042C26.2292 42.1042 27.4167 42.0417 28.5833 41.9375C29.0208 41.8958 29.4583 41.875 29.875 41.8125C30.2083 41.7708 30.5417 41.7292 30.8958 41.6875Z" fill="#386FA4"/>
</svg>
