<svg width="21" height="20" viewBox="0 0 21 20" fill="none" xmlns="http://www.w3.org/2000/svg">
<path d="M10.633 9.68329C10.608 9.68329 10.5913 9.68329 10.5663 9.68329C10.5247 9.67496 10.4663 9.67496 10.4163 9.68329C7.99968 9.60829 6.17468 7.70829 6.17468 5.36663C6.17468 2.98329 8.11635 1.04163 10.4997 1.04163C12.883 1.04163 14.8247 2.98329 14.8247 5.36663C14.8164 7.70829 12.983 9.60829 10.658 9.68329C10.6497 9.68329 10.6413 9.68329 10.633 9.68329ZM10.4997 2.29163C8.80802 2.29163 7.42468 3.67496 7.42468 5.36663C7.42468 7.03329 8.72468 8.37496 10.383 8.43329C10.4247 8.42496 10.5413 8.42496 10.6497 8.43329C12.283 8.35829 13.5663 7.01663 13.5747 5.36663C13.5747 3.67496 12.1913 2.29163 10.4997 2.29163Z" fill="#386FA4"/>
<path d="M10.6413 18.7917C9.00801 18.7917 7.36634 18.375 6.12467 17.5417C4.96634 16.775 4.33301 15.725 4.33301 14.5834C4.33301 13.4417 4.96634 12.3834 6.12467 11.6084C8.62467 9.95004 12.6747 9.95004 15.158 11.6084C16.308 12.375 16.9497 13.425 16.9497 14.5667C16.9497 15.7084 16.3163 16.7667 15.158 17.5417C13.908 18.375 12.2747 18.7917 10.6413 18.7917ZM6.81634 12.6584C6.01634 13.1917 5.58301 13.875 5.58301 14.5917C5.58301 15.3 6.02467 15.9834 6.81634 16.5084C8.89134 17.9 12.3913 17.9 14.4663 16.5084C15.2663 15.975 15.6997 15.2917 15.6997 14.575C15.6997 13.8667 15.258 13.1834 14.4663 12.6584C12.3913 11.275 8.89134 11.275 6.81634 12.6584Z" fill="#386FA4"/>
</svg>
