<svg width="28" height="28" viewBox="0 0 28 28" fill="none" xmlns="http://www.w3.org/2000/svg">
<path d="M22.1667 3.5H5.83333C4.54467 3.5 3.5 4.54467 3.5 5.83333V22.1667C3.5 23.4553 4.54467 24.5 5.83333 24.5H22.1667C23.4553 24.5 24.5 23.4553 24.5 22.1667V5.83333C24.5 4.54467 23.4553 3.5 22.1667 3.5Z" stroke="#0A151E" stroke-width="1.5" stroke-linecap="round" stroke-linejoin="round"/>
<path d="M9.91666 11.6665C10.8832 11.6665 11.6667 10.883 11.6667 9.9165C11.6667 8.95001 10.8832 8.1665 9.91666 8.1665C8.95017 8.1665 8.16666 8.95001 8.16666 9.9165C8.16666 10.883 8.95017 11.6665 9.91666 11.6665Z" stroke="#0A151E" stroke-width="1.5" stroke-linecap="round" stroke-linejoin="round"/>
<path d="M24.5 17.4998L18.6667 11.6665L5.83334 24.4998" stroke="#0A151E" stroke-width="1.5" stroke-linecap="round" stroke-linejoin="round"/>
</svg>
