<svg width="28" height="28" viewBox="0 0 28 28" fill="none" xmlns="http://www.w3.org/2000/svg">
<path d="M25.0133 12.8917L14.2917 23.6134C12.9782 24.9269 11.1967 25.6648 9.33917 25.6648C7.48162 25.6648 5.70015 24.9269 4.38667 23.6134C3.07318 22.2999 2.33527 20.5184 2.33527 18.6609C2.33527 16.8034 3.07318 15.0219 4.38667 13.7084L15.1083 2.98674C15.984 2.11108 17.1716 1.61914 18.41 1.61914C19.6484 1.61914 20.836 2.11108 21.7117 2.98674C22.5873 3.86239 23.0793 5.05004 23.0793 6.2884C23.0793 7.52677 22.5873 8.71441 21.7117 9.59007L10.9783 20.3117C10.5405 20.7496 9.94668 20.9955 9.3275 20.9955C8.70832 20.9955 8.11449 20.7496 7.67667 20.3117C7.23884 19.8739 6.99287 19.2801 6.99287 18.6609C6.99287 18.0417 7.23884 17.4479 7.67667 17.0101L17.5817 7.11674" stroke="#0A151E" stroke-width="1.5" stroke-linecap="round" stroke-linejoin="round"/>
</svg>
