<svg width="13" height="13" viewBox="0 0 13 13" fill="none" xmlns="http://www.w3.org/2000/svg">
<path d="M7.67277 11.0804C7.11296 11.0804 6.32068 10.6866 5.69445 8.80318L5.35287 7.77844L4.32812 7.43686C2.44943 6.81063 2.05566 6.01835 2.05566 5.45854C2.05566 4.90347 2.44943 4.10645 4.32812 3.47547L8.35593 2.13287C9.3617 1.79603 10.2014 1.89566 10.7185 2.40803C11.2356 2.9204 11.3353 3.76487 10.9984 4.77063L9.65584 8.79844C9.02486 10.6866 8.23258 11.0804 7.67277 11.0804ZM4.5511 4.15389C3.23222 4.5951 2.76255 5.11696 2.76255 5.45854C2.76255 5.80012 3.23222 6.32198 4.5511 6.75844L5.74663 7.15695C5.85101 7.19016 5.9364 7.27556 5.96961 7.37993L6.36812 8.57546C6.80459 9.89434 7.33119 10.364 7.67277 10.364C8.01435 10.364 8.53621 9.89434 8.97742 8.57546L10.32 4.54766C10.562 3.81705 10.5193 3.21929 10.2109 2.91092C9.90253 2.60254 9.30477 2.56459 8.57891 2.80654L4.5511 4.15389Z" fill="white"/>
<path d="M5.72279 7.65042C5.63265 7.65042 5.54251 7.61721 5.47135 7.54605C5.33377 7.40846 5.33377 7.18074 5.47135 7.04316L7.16977 5.34C7.30735 5.20242 7.53507 5.20242 7.67265 5.34C7.81023 5.47758 7.81023 5.7053 7.67265 5.84289L5.97423 7.54605C5.90781 7.61721 5.81293 7.65042 5.72279 7.65042Z" fill="white"/>
</svg>
