<svg xmlns="http://www.w3.org/2000/svg" xmlns:xlink="http://www.w3.org/1999/xlink" viewBox="0 0 61.04 61.04"><defs><style>.cls-1{fill:url(#linear-gradient);}.cls-2{fill:#fff;}.cls-3{fill:url(#linear-gradient-2);}</style><linearGradient id="linear-gradient" x1="-45.7" y1="-54.09" x2="120.21" y2="130.08" gradientUnits="userSpaceOnUse"><stop offset="0" stop-color="#376fa4"/><stop offset="1" stop-color="#133c55"/></linearGradient><linearGradient id="linear-gradient-2" x1="22.1" y1="21.66" x2="67.3" y2="90.92" xlink:href="#linear-gradient"/></defs><title>Asset 1</title><g id="Layer_2" data-name="Layer 2"><g id="Layer_1-2" data-name="Layer 1"><rect class="cls-1" width="61.04" height="61.04" rx="24.49"/><path class="cls-2" d="M46.22,33.77h0A12.76,12.76,0,0,1,33.46,46.53H26.79a12,12,0,0,1-12-12V17.2a.47.47,0,0,1,.8-.33l4.54,4.56a1.68,1.68,0,0,0,1.21.5l12.89-.14A12,12,0,0,1,46.22,33.77Z"/><path class="cls-3" d="M30.52,39.94a6.07,6.07,0,0,1-6.07-6.07,1.5,1.5,0,0,1,3,0,3.07,3.07,0,1,0,6.13,0,1.5,1.5,0,1,1,3,0A6.07,6.07,0,0,1,30.52,39.94Z"/></g></g></svg>