<svg width="32" height="32" viewBox="0 0 32 32" fill="none" xmlns="http://www.w3.org/2000/svg">
<path d="M12.7999 22.4002C12.5877 22.4002 12.3842 22.4845 12.2342 22.6345C12.0842 22.7845 11.9999 22.988 11.9999 23.2002C11.9999 23.4124 12.0842 23.6159 12.2342 23.7659C12.3842 23.9159 12.5877 24.0002 12.7999 24.0002H14.3999V23.2002C14.3999 22.9202 14.4479 22.6498 14.5359 22.4002H12.7999ZM9.5999 27.2002H14.5359C14.7 27.6645 15.003 28.067 15.4037 28.3533C15.8044 28.6395 16.2835 28.7955 16.7759 28.8002H9.5999C8.75121 28.8002 7.93728 28.4631 7.33716 27.8629C6.73704 27.2628 6.3999 26.4489 6.3999 25.6002V6.4002C6.3999 5.5515 6.73704 4.73757 7.33716 4.13745C7.93728 3.53734 8.75121 3.2002 9.5999 3.2002H19.1999C20.0486 3.2002 20.8625 3.53734 21.4626 4.13745C22.0628 4.73757 22.3999 5.5515 22.3999 6.4002V17.7378C21.8823 17.5548 21.3175 17.5548 20.7999 17.7378V6.4002C20.7999 5.97585 20.6313 5.56888 20.3313 5.26882C20.0312 4.96877 19.6242 4.8002 19.1999 4.8002H9.5999C9.17556 4.8002 8.76859 4.96877 8.46853 5.26882C8.16847 5.56888 7.9999 5.97585 7.9999 6.4002V25.6002C7.9999 26.0245 8.16847 26.4315 8.46853 26.7316C8.76859 27.0316 9.17556 27.2002 9.5999 27.2002ZM21.9055 19.261C22.0518 19.3215 22.1769 19.424 22.2649 19.5556C22.3529 19.6872 22.3999 19.8419 22.3999 20.0002V29.6002C22.4002 29.7586 22.3534 29.9136 22.2655 30.0454C22.1777 30.1772 22.0526 30.28 21.9062 30.3407C21.7599 30.4013 21.5988 30.4172 21.4434 30.3862C21.2881 30.3552 21.1454 30.2788 21.0335 30.1666L18.0687 27.2002H16.7999C16.5877 27.2002 16.3842 27.1159 16.2342 26.9659C16.0842 26.8159 15.9999 26.6124 15.9999 26.4002V23.2002C15.9999 22.988 16.0842 22.7845 16.2342 22.6345C16.3842 22.4845 16.5877 22.4002 16.7999 22.4002H18.0687L21.0335 19.4338C21.1455 19.322 21.2881 19.2459 21.4433 19.2151C21.5985 19.1844 21.7594 19.2003 21.9055 19.261ZM28.2399 19.5202C28.4335 19.7794 28.6959 20.245 28.9487 20.9202C29.3567 22.0082 29.5999 23.3026 29.5999 24.8002C29.5999 26.2978 29.3567 27.5922 28.9487 28.6818C28.6959 29.3554 28.4335 29.821 28.2399 30.0802C28.1205 30.241 27.9452 30.3512 27.7485 30.389C27.5518 30.4268 27.3481 30.3894 27.1776 30.2843C27.0071 30.1791 26.8823 30.0139 26.8278 29.8212C26.7732 29.6284 26.793 29.4223 26.8831 29.2434L27.0687 28.9522C27.2189 28.6859 27.3468 28.4076 27.4511 28.1202C27.7919 27.2082 27.9999 26.1026 27.9999 24.8002C27.9999 23.4978 27.7919 22.3922 27.4511 21.4818C27.3467 21.1944 27.2188 20.9161 27.0687 20.6498L26.9599 20.4802C26.8969 20.3962 26.851 20.3005 26.8249 20.1987C26.7989 20.097 26.7931 19.9911 26.8079 19.8871C26.8228 19.7831 26.858 19.683 26.9115 19.5926C26.9651 19.5022 27.0359 19.4232 27.1199 19.3602C27.204 19.2972 27.2996 19.2513 27.4014 19.2252C27.5031 19.1992 27.609 19.1934 27.713 19.2082C27.817 19.2231 27.9171 19.2583 28.0075 19.3118C28.0979 19.3653 28.1769 19.4361 28.2399 19.5202ZM25.9583 22.3474C25.8356 21.9698 25.6875 21.601 25.5151 21.2434C25.4702 21.1461 25.4062 21.0589 25.3269 20.9868C25.2476 20.9148 25.1546 20.8594 25.0535 20.8239C24.9524 20.7885 24.8452 20.7737 24.7383 20.7805C24.6314 20.7873 24.5269 20.8154 24.4311 20.8633C24.3352 20.9113 24.25 20.9779 24.1805 21.0594C24.1109 21.1409 24.0584 21.2355 24.0261 21.3377C23.9938 21.4398 23.9823 21.5474 23.9924 21.6541C24.0025 21.7607 24.0339 21.8643 24.0847 21.9586C24.1679 22.1266 24.3039 22.4434 24.4415 22.8546C24.6655 23.5282 24.7999 24.1986 24.7999 24.8002C24.7999 25.4034 24.6655 26.0722 24.4415 26.7474C24.3711 26.9583 24.2926 27.1665 24.2063 27.3714L24.0847 27.6434C24.0339 27.7377 24.0025 27.8413 23.9924 27.9479C23.9823 28.0546 23.9938 28.1622 24.0261 28.2643C24.0584 28.3665 24.1109 28.4611 24.1805 28.5426C24.25 28.6241 24.3352 28.6907 24.4311 28.7387C24.5269 28.7866 24.6314 28.8147 24.7383 28.8215C24.8452 28.8283 24.9524 28.8135 25.0535 28.7781C25.1546 28.7426 25.2476 28.6872 25.3269 28.6152C25.4062 28.5431 25.4702 28.4559 25.5151 28.3586C25.6319 28.1266 25.7951 27.7426 25.9583 27.2546C26.2335 26.429 26.3999 25.5986 26.3999 24.8002C26.3999 24.0034 26.2335 23.1714 25.9583 22.3474Z" fill="black"/>
</svg>
