<svg width="32" height="32" viewBox="0 0 32 32" fill="none" xmlns="http://www.w3.org/2000/svg">
<path d="M12.2129 15.4932C12.1729 15.4932 12.1463 15.4932 12.1063 15.4932C12.0396 15.4798 11.9463 15.4798 11.8663 15.4932C7.99959 15.3732 5.07959 12.3332 5.07959 8.5865C5.07959 4.77317 8.18626 1.6665 11.9996 1.6665C15.8129 1.6665 18.9196 4.77317 18.9196 8.5865C18.9063 12.3332 15.9729 15.3732 12.2529 15.4932C12.2396 15.4932 12.2263 15.4932 12.2129 15.4932ZM11.9996 3.6665C9.29292 3.6665 7.07959 5.87984 7.07959 8.5865C7.07959 11.2532 9.15959 13.3998 11.8129 13.4932C11.8929 13.4798 12.0663 13.4798 12.2396 13.4932C14.8529 13.3732 16.9063 11.2265 16.9196 8.5865C16.9196 5.87984 14.7063 3.6665 11.9996 3.6665Z" fill="#0A151E"/>
<path d="M22.0529 15.6668C22.0129 15.6668 21.9729 15.6668 21.9329 15.6535C21.3862 15.7068 20.8262 15.3202 20.7729 14.7735C20.7196 14.2268 21.0529 13.7335 21.5996 13.6668C21.7596 13.6535 21.9329 13.6535 22.0796 13.6535C24.0262 13.5468 25.5462 11.9468 25.5462 9.98683C25.5462 7.96016 23.9062 6.32016 21.8796 6.32016C21.3329 6.3335 20.8796 5.88016 20.8796 5.3335C20.8796 4.78683 21.3329 4.3335 21.8796 4.3335C24.9996 4.3335 27.5462 6.88016 27.5462 10.0002C27.5462 13.0668 25.1462 15.5468 22.0929 15.6668C22.0796 15.6668 22.0662 15.6668 22.0529 15.6668Z" fill="#0A151E"/>
<path d="M12.2261 30.0668C9.61281 30.0668 6.98615 29.4002 4.99948 28.0668C3.14615 26.8402 2.13281 25.1602 2.13281 23.3335C2.13281 21.5068 3.14615 19.8135 4.99948 18.5735C8.99948 15.9202 15.4795 15.9202 19.4528 18.5735C21.2928 19.8002 22.3195 21.4802 22.3195 23.3068C22.3195 25.1335 21.3061 26.8268 19.4528 28.0668C17.4528 29.4002 14.8395 30.0668 12.2261 30.0668ZM6.10615 20.2535C4.82615 21.1068 4.13281 22.2002 4.13281 23.3468C4.13281 24.4802 4.83948 25.5735 6.10615 26.4135C9.42615 28.6402 15.0261 28.6402 18.3461 26.4135C19.6261 25.5602 20.3195 24.4668 20.3195 23.3202C20.3195 22.1868 19.6128 21.0935 18.3461 20.2535C15.0261 18.0402 9.42615 18.0402 6.10615 20.2535Z" fill="#0A151E"/>
<path d="M24.4528 27.6667C23.9862 27.6667 23.5728 27.3467 23.4795 26.8667C23.3728 26.32 23.7195 25.8 24.2528 25.68C25.0928 25.5067 25.8662 25.1734 26.4662 24.7067C27.2262 24.1334 27.6395 23.4134 27.6395 22.6534C27.6395 21.8934 27.2262 21.1734 26.4795 20.6134C25.8928 20.16 25.1595 19.84 24.2928 19.64C23.7595 19.52 23.4128 18.9867 23.5328 18.44C23.6528 17.9067 24.1862 17.56 24.7328 17.68C25.8795 17.9334 26.8795 18.3867 27.6928 19.0134C28.9328 19.9467 29.6395 21.2667 29.6395 22.6534C29.6395 24.04 28.9195 25.36 27.6795 26.3067C26.8528 26.9467 25.8128 27.4134 24.6662 27.64C24.5862 27.6667 24.5195 27.6667 24.4528 27.6667Z" fill="#0A151E"/>
</svg>
