<svg width="32" height="32" viewBox="0 0 32 32" fill="none" xmlns="http://www.w3.org/2000/svg">
<path d="M20.3201 29.6933H20.1468C14.2268 29.6933 11.3734 27.36 10.8801 22.1333C10.8268 21.5866 11.2268 21.0933 11.7868 21.04C12.3201 20.9866 12.8268 21.4 12.8801 21.9466C13.2668 26.1333 15.2401 27.6933 20.1601 27.6933H20.3334C25.7601 27.6933 27.6801 25.7733 27.6801 20.3466V11.6533C27.6801 6.22664 25.7601 4.30664 20.3334 4.30664H20.1601C15.2134 4.30664 13.2401 5.89331 12.8801 10.16C12.8134 10.7066 12.3468 11.12 11.7868 11.0666C11.2268 11.0266 10.8268 10.5333 10.8668 9.98664C11.3201 4.67997 14.1868 2.30664 20.1468 2.30664H20.3201C26.8668 2.30664 29.6668 5.10664 29.6668 11.6533V20.3466C29.6668 26.8933 26.8668 29.6933 20.3201 29.6933Z" fill="#0A151E"/>
<path d="M20 17H4.82666C4.27999 17 3.82666 16.5467 3.82666 16C3.82666 15.4533 4.27999 15 4.82666 15H20C20.5467 15 21 15.4533 21 16C21 16.5467 20.5467 17 20 17Z" fill="#0A151E"/>
<path d="M7.8 21.4666C7.54667 21.4666 7.29334 21.3733 7.09334 21.1733L2.62667 16.7066C2.24 16.32 2.24 15.68 2.62667 15.2933L7.09334 10.8266C7.48 10.44 8.12 10.44 8.50667 10.8266C8.89334 11.2133 8.89334 11.8533 8.50667 12.24L4.74667 16L8.50667 19.76C8.89334 20.1466 8.89334 20.7866 8.50667 21.1733C8.32 21.3733 8.05334 21.4666 7.8 21.4666Z" fill="#0A151E"/>
</svg>
