<svg width="32" height="32" viewBox="0 0 32 32" fill="none" xmlns="http://www.w3.org/2000/svg">
<path d="M14.0281 3.49854C14.278 3.22399 14.5825 3.00465 14.9221 2.85456C15.2617 2.70448 15.6288 2.62695 16.0001 2.62695C16.3714 2.62695 16.7385 2.70448 17.0781 2.85456C17.4177 3.00465 17.7222 3.22399 17.9721 3.49854L19.3321 4.99187C19.5962 5.28176 19.9209 5.50984 20.2832 5.65987C20.6455 5.80991 21.0364 5.87819 21.4281 5.85987L23.4454 5.76654C23.8162 5.74907 24.1864 5.80917 24.5326 5.943C24.8787 6.07683 25.1931 6.28143 25.4557 6.54373C25.7182 6.80602 25.9231 7.12023 26.0573 7.46625C26.1914 7.81227 26.2519 8.18248 26.2348 8.5532L26.1401 10.5719C26.1218 10.9636 26.1901 11.3545 26.3401 11.7168C26.4901 12.0791 26.7182 12.4038 27.0081 12.6679L28.5014 14.0279C28.776 14.2778 28.9953 14.5823 29.1454 14.9219C29.2955 15.2614 29.373 15.6286 29.373 15.9999C29.373 16.3711 29.2955 16.7383 29.1454 17.0779C28.9953 17.4175 28.776 17.7219 28.5014 17.9719L27.0081 19.3319C26.7182 19.5959 26.4901 19.9207 26.3401 20.283C26.1901 20.6453 26.1218 21.0362 26.1401 21.4279L26.2334 23.4452C26.2509 23.8159 26.1908 24.1862 26.057 24.5323C25.9232 24.8785 25.7185 25.1929 25.4563 25.4554C25.194 25.718 24.8798 25.9229 24.5337 26.057C24.1877 26.1912 23.8175 26.2516 23.4468 26.2345L21.4281 26.1399C21.0364 26.1215 20.6455 26.1898 20.2832 26.3399C19.9209 26.4899 19.5962 26.718 19.3321 27.0079L17.9721 28.5012C17.7222 28.7757 17.4177 28.9951 17.0781 29.1452C16.7385 29.2953 16.3714 29.3728 16.0001 29.3728C15.6288 29.3728 15.2617 29.2953 14.9221 29.1452C14.5825 28.9951 14.278 28.7757 14.0281 28.5012L12.6681 27.0079C12.4041 26.718 12.0793 26.4899 11.717 26.3399C11.3547 26.1898 10.9638 26.1215 10.5721 26.1399L8.55478 26.2332C8.18407 26.2507 7.8138 26.1906 7.46766 26.0567C7.12151 25.9229 6.80711 25.7183 6.54456 25.456C6.28202 25.1937 6.07711 24.8795 5.94295 24.5335C5.80879 24.1875 5.74833 23.8173 5.76545 23.4465L5.86011 21.4279C5.87844 21.0362 5.81015 20.6453 5.66012 20.283C5.51009 19.9207 5.282 19.5959 4.99211 19.3319L3.49878 17.9719C3.22423 17.7219 3.00489 17.4175 2.85481 17.0779C2.70472 16.7383 2.6272 16.3711 2.6272 15.9999C2.6272 15.6286 2.70472 15.2614 2.85481 14.9219C3.00489 14.5823 3.22423 14.2778 3.49878 14.0279L4.99211 12.6679C5.282 12.4038 5.51009 12.0791 5.66012 11.7168C5.81015 11.3545 5.87844 10.9636 5.86011 10.5719L5.76678 8.55454C5.74931 8.18383 5.80942 7.81356 5.94324 7.46741C6.07707 7.12126 6.28168 6.80686 6.54397 6.54432C6.80627 6.28177 7.12047 6.07687 7.46649 5.94271C7.81251 5.80855 8.18272 5.74809 8.55345 5.7652L10.5721 5.85987C10.9638 5.87819 11.3547 5.80991 11.717 5.65987C12.0793 5.50984 12.4041 5.28176 12.6681 4.99187L14.0281 3.49854V3.49854Z" stroke="black" stroke-width="1.5"/>
<path d="M12 15.9997L14.6667 18.6663L20 13.333" stroke="black" stroke-width="1.5" stroke-linecap="round" stroke-linejoin="round"/>
</svg>
