<svg width="32" height="32" viewBox="0 0 32 32" fill="none" xmlns="http://www.w3.org/2000/svg">
<path d="M17.1868 7.83984H6.8134C4.5334 7.83984 2.66675 9.70649 2.66675 11.9865V27.1332C2.66675 29.0665 4.05341 29.8932 5.74674 28.9465L10.9867 26.0265C11.5467 25.7198 12.4534 25.7198 13.0001 26.0265L18.2401 28.9465C19.9334 29.8932 21.3201 29.0665 21.3201 27.1332V11.9865C21.3334 9.70649 19.4668 7.83984 17.1868 7.83984Z" stroke="#0A151E" stroke-width="1.5" stroke-linecap="round" stroke-linejoin="round"/>
<path d="M21.3334 11.9865V27.1332C21.3334 29.0665 19.9468 29.8798 18.2534 28.9465L13.0134 26.0265C12.4534 25.7198 11.5467 25.7198 10.9867 26.0265L5.74674 28.9465C4.05341 29.8798 2.66675 29.0665 2.66675 27.1332V11.9865C2.66675 9.70649 4.5334 7.83984 6.8134 7.83984H17.1868C19.4668 7.83984 21.3334 9.70649 21.3334 11.9865Z" stroke="#0A151E" stroke-width="1.5" stroke-linecap="round" stroke-linejoin="round"/>
<path d="M29.3334 6.81315V21.9598C29.3334 23.8932 27.9468 24.7065 26.2534 23.7732L21.3334 21.0265V11.9865C21.3334 9.70649 19.4668 7.83984 17.1868 7.83984H10.6667V6.81315C10.6667 4.53315 12.5334 2.6665 14.8134 2.6665H25.1868C27.4668 2.6665 29.3334 4.53315 29.3334 6.81315Z" stroke="#0A151E" stroke-width="1.5" stroke-linecap="round" stroke-linejoin="round"/>
</svg>
