<svg width="32" height="32" viewBox="0 0 32 32" fill="none" xmlns="http://www.w3.org/2000/svg">
<path d="M16 20C18.2091 20 20 18.2091 20 16C20 13.7909 18.2091 12 16 12C13.7909 12 12 13.7909 12 16C12 18.2091 13.7909 20 16 20Z" stroke="#0A151E" stroke-width="1.5" stroke-miterlimit="10" stroke-linecap="round" stroke-linejoin="round"/>
<path d="M2.66675 17.1736V14.8269C2.66675 13.4402 3.80008 12.2936 5.20008 12.2936C7.61341 12.2936 8.60008 10.5869 7.38675 8.49357C6.69341 7.29357 7.10675 5.73357 8.32008 5.04024L10.6267 3.72024C11.6801 3.09357 13.0401 3.46691 13.6667 4.52024L13.8134 4.77357C15.0134 6.86691 16.9867 6.86691 18.2001 4.77357L18.3467 4.52024C18.9734 3.46691 20.3334 3.09357 21.3867 3.72024L23.6934 5.04024C24.9067 5.73357 25.3201 7.29357 24.6267 8.49357C23.4134 10.5869 24.4001 12.2936 26.8134 12.2936C28.2001 12.2936 29.3467 13.4269 29.3467 14.8269V17.1736C29.3467 18.5602 28.2134 19.7069 26.8134 19.7069C24.4001 19.7069 23.4134 21.4136 24.6267 23.5069C25.3201 24.7202 24.9067 26.2669 23.6934 26.9602L21.3867 28.2802C20.3334 28.9069 18.9734 28.5336 18.3467 27.4802L18.2001 27.2269C17.0001 25.1336 15.0267 25.1336 13.8134 27.2269L13.6667 27.4802C13.0401 28.5336 11.6801 28.9069 10.6267 28.2802L8.32008 26.9602C7.10675 26.2669 6.69341 24.7069 7.38675 23.5069C8.60008 21.4136 7.61341 19.7069 5.20008 19.7069C3.80008 19.7069 2.66675 18.5602 2.66675 17.1736Z" stroke="#0A151E" stroke-width="1.5" stroke-miterlimit="10" stroke-linecap="round" stroke-linejoin="round"/>
</svg>
