<svg width="29" height="29" viewBox="0 0 29 29" fill="none" xmlns="http://www.w3.org/2000/svg">
<path d="M9.42482 24.8949C9.38982 24.8949 9.34316 24.9182 9.30816 24.9182C7.04482 23.7982 5.20149 21.9432 4.06982 19.6799C4.06982 19.6449 4.09316 19.5982 4.09316 19.5632C5.51649 19.9832 6.98649 20.2982 8.44482 20.5432C8.70149 22.0132 9.00482 23.4716 9.42482 24.8949Z" fill="#386FA4"/>
<path d="M24.9299 19.6916C23.7749 22.0132 21.8499 23.8916 19.5049 25.0232C19.9482 23.5416 20.3215 22.0482 20.5665 20.5432C22.0365 20.2982 23.4832 19.9832 24.9065 19.5632C24.8949 19.6099 24.9299 19.6566 24.9299 19.6916Z" fill="#386FA4"/>
<path d="M25.0232 9.4949C23.5532 9.05156 22.0715 8.6899 20.5665 8.43323C20.3215 6.92823 19.9599 5.4349 19.5049 3.97656C21.9199 5.13156 23.8682 7.0799 25.0232 9.4949Z" fill="#386FA4"/>
<path d="M9.4249 4.10507C9.0049 5.5284 8.70156 6.97507 8.45656 8.44507C6.95156 8.6784 5.45823 9.05173 3.97656 9.49507C5.10823 7.15007 6.98656 5.22507 9.30823 4.07007C9.34323 4.07007 9.3899 4.10507 9.4249 4.10507Z" fill="#386FA4"/>
<path d="M18.5716 8.18825C15.8649 7.88492 13.1349 7.88492 10.4282 8.18825C10.7199 6.58992 11.0932 4.99159 11.6182 3.45159C11.6416 3.35825 11.6299 3.28825 11.6416 3.19492C12.5632 2.97325 13.5082 2.83325 14.4999 2.83325C15.4799 2.83325 16.4366 2.97325 17.3466 3.19492C17.3582 3.28825 17.3582 3.35825 17.3816 3.45159C17.9066 5.00325 18.2799 6.58992 18.5716 8.18825Z" fill="#386FA4"/>
<path d="M8.1885 18.5716C6.5785 18.2799 4.99183 17.9066 3.45183 17.3816C3.3585 17.3582 3.2885 17.3699 3.19516 17.3582C2.9735 16.4366 2.8335 15.4916 2.8335 14.4999C2.8335 13.5199 2.9735 12.5632 3.19516 11.6532C3.2885 11.6416 3.3585 11.6416 3.45183 11.6182C5.0035 11.1049 6.5785 10.7199 8.1885 10.4282C7.89683 13.1349 7.89683 15.8649 8.1885 18.5716Z" fill="#386FA4"/>
<path d="M26.1665 14.4999C26.1665 15.4916 26.0265 16.4366 25.8049 17.3582C25.7115 17.3699 25.6415 17.3582 25.5482 17.3816C23.9965 17.8949 22.4099 18.2799 20.8115 18.5716C21.1149 15.8649 21.1149 13.1349 20.8115 10.4282C22.4099 10.7199 24.0082 11.0932 25.5482 11.6182C25.6415 11.6416 25.7115 11.6532 25.8049 11.6532C26.0265 12.5749 26.1665 13.5199 26.1665 14.4999Z" fill="#386FA4"/>
<path d="M18.5716 20.8118C18.2799 22.4218 17.9066 24.0084 17.3816 25.5484C17.3582 25.6418 17.3582 25.7118 17.3466 25.8051C16.4366 26.0268 15.4799 26.1668 14.4999 26.1668C13.5082 26.1668 12.5632 26.0268 11.6416 25.8051C11.6299 25.7118 11.6416 25.6418 11.6182 25.5484C11.1049 23.9968 10.7199 22.4218 10.4282 20.8118C11.7816 20.9634 13.1349 21.0684 14.4999 21.0684C15.8649 21.0684 17.2299 20.9634 18.5716 20.8118Z" fill="#386FA4"/>
<path d="M18.8907 18.8905C15.9728 19.2586 13.0276 19.2586 10.1096 18.8905C9.74146 15.9725 9.74146 13.0273 10.1096 10.1094C13.0276 9.74121 15.9728 9.74121 18.8907 10.1094C19.2589 13.0273 19.2589 15.9725 18.8907 18.8905Z" fill="#386FA4"/>
</svg>
