<svg width="29" height="29" viewBox="0 0 29 29" fill="none" xmlns="http://www.w3.org/2000/svg">
<path d="M11.1918 1.60734C13.1644 0.130889 15.8356 0.130887 17.8082 1.60733L26.1796 7.87304C28.1522 9.34949 28.9776 11.9666 28.2241 14.3555L25.0266 24.4936C24.2731 26.8826 22.1121 28.5 19.6738 28.5H9.32621C6.88791 28.5 4.72691 26.8826 3.97343 24.4936L0.77585 14.3555C0.0223731 11.9666 0.847799 9.34949 2.82043 7.87304L11.1918 1.60734Z" fill="#386FA4"/>
<path d="M20.1282 16.5255C20.1282 17.2869 19.9827 18.0409 19.6998 18.7443C19.417 19.4478 19.0024 20.087 18.4798 20.6254C17.9571 21.1638 17.3367 21.5909 16.6538 21.8822C15.971 22.1736 15.2391 22.3236 14.5 22.3236C13.7609 22.3236 13.029 22.1736 12.3462 21.8822C11.6633 21.5909 11.0429 21.1638 10.5202 20.6254C9.9976 20.087 9.58303 19.4478 9.30018 18.7443C9.01734 18.0409 8.87176 17.2869 8.87176 16.5255H11.1447C11.1447 16.9794 11.2315 17.4289 11.4001 17.8483C11.5687 18.2676 11.8159 18.6487 12.1274 18.9697C12.439 19.2906 12.8089 19.5452 13.216 19.719C13.6231 19.8927 14.0594 19.9821 14.5 19.9821C14.9406 19.9821 15.3769 19.8927 15.784 19.719C16.1911 19.5452 16.561 19.2906 16.8726 18.9697C17.1841 18.6487 17.4313 18.2677 17.5999 17.8483C17.7685 17.4289 17.8553 16.9794 17.8553 16.5255H20.1282Z" fill="white"/>
</svg>
