<svg width="29" height="29" viewBox="0 0 29 29" fill="none" xmlns="http://www.w3.org/2000/svg">
<path fill-rule="evenodd" clip-rule="evenodd" d="M16.2952 3.09643L25.3747 9.87792C26.3973 10.6416 26.8247 11.9687 26.44 13.1856L22.9166 24.3334C22.5223 25.5811 21.3647 26.4293 20.0561 26.4293H8.9439C7.63533 26.4293 6.47773 25.5811 6.08337 24.3334L2.55995 13.1856C2.17533 11.9687 2.60273 10.6416 3.62525 9.87792L12.7048 3.09643C13.7695 2.30119 15.2305 2.30119 16.2952 3.09643ZM11.5079 1.49405C13.2825 0.168652 15.7175 0.16865 17.492 1.49405L26.5716 8.27554C28.2758 9.54841 28.9881 11.7601 28.3471 13.7883L24.8236 24.9362C24.1664 27.0157 22.237 28.4293 20.0561 28.4293H8.9439C6.76296 28.4293 4.83362 27.0157 4.17636 24.9362L0.652938 13.7883C0.0118999 11.7601 0.724228 9.54841 2.42843 8.27554L11.5079 1.49405ZM19.6755 18.7397C19.957 18.041 20.1019 17.2921 20.1019 16.5359H17.8396C17.8396 16.9867 17.7532 17.4331 17.5854 17.8497C17.4175 18.2662 17.1715 18.6447 16.8614 18.9635C16.5513 19.2823 16.1832 19.5351 15.778 19.7077C15.3728 19.8802 14.9386 19.969 14.5 19.969C14.0614 19.969 13.6272 19.8802 13.222 19.7077C12.8168 19.5351 12.4487 19.2823 12.1385 18.9635C11.8284 18.6447 11.5824 18.2662 11.4146 17.8497C11.2468 17.4331 11.1604 16.9867 11.1604 16.5358H8.8981C8.8981 17.2921 9.043 18.041 9.32452 18.7397C9.60604 19.4384 10.0187 20.0732 10.5389 20.608C11.059 21.1427 11.6766 21.5669 12.3562 21.8563C13.0359 22.1457 13.7643 22.2947 14.5 22.2947C15.2356 22.2947 15.9641 22.1457 16.6437 21.8563C17.3234 21.5669 17.9409 21.1427 18.4611 20.608C18.9813 20.0732 19.3939 19.4384 19.6755 18.7397Z" fill="#9E9E9E"/>
</svg>
