<svg width="29" height="29" viewBox="0 0 29 29" fill="none" xmlns="http://www.w3.org/2000/svg">
<path d="M23.0636 17.4049L21.8969 15.4683C21.6519 15.0366 21.4303 14.2199 21.4303 13.7416V10.7899C21.4303 8.04825 19.8203 5.67992 17.4986 4.57159C16.8919 3.49825 15.7719 2.83325 14.4886 2.83325C13.2169 2.83325 12.0736 3.52159 11.4669 4.60659C9.19193 5.73825 7.61693 8.08325 7.61693 10.7899V13.7416C7.61693 14.2199 7.39526 15.0366 7.15026 15.4566L5.97193 17.4049C5.50526 18.1866 5.40026 19.0499 5.69193 19.8433C5.97193 20.6249 6.63693 21.2316 7.50026 21.5233C9.76359 22.2933 12.1436 22.6666 14.5236 22.6666C16.9036 22.6666 19.2836 22.2933 21.5469 21.5349C22.3636 21.2666 22.9936 20.6483 23.2969 19.8433C23.6003 19.0383 23.5186 18.1516 23.0636 17.4049Z" fill="#386FA4"/>
<path d="M17.8016 23.8449C17.3116 25.1983 16.0166 26.1666 14.5 26.1666C13.5783 26.1666 12.6683 25.7933 12.0266 25.1283C11.6533 24.7783 11.3733 24.3116 11.21 23.8333C11.3616 23.8566 11.5133 23.8683 11.6766 23.8916C11.945 23.9266 12.225 23.9616 12.505 23.9849C13.17 24.0433 13.8466 24.0783 14.5233 24.0783C15.1883 24.0783 15.8533 24.0433 16.5066 23.9849C16.7516 23.9616 16.9966 23.9499 17.23 23.9149C17.4166 23.8916 17.6033 23.8683 17.8016 23.8449Z" fill="#386FA4"/>
</svg>
