<svg width="50" height="50" viewBox="0 0 50 50" fill="none" xmlns="http://www.w3.org/2000/svg">
<path d="M35.4167 7.29167H14.5833C8.33332 7.29167 4.16666 10.4167 4.16666 17.7083V32.2917C4.16666 39.5833 8.33332 42.7083 14.5833 42.7083H35.4167C41.6667 42.7083 45.8333 39.5833 45.8333 32.2917V17.7083C45.8333 10.4167 41.6667 7.29167 35.4167 7.29167ZM36.3958 19.9792L29.875 25.1875C28.5 26.2917 26.75 26.8333 25 26.8333C23.25 26.8333 21.4792 26.2917 20.125 25.1875L13.6042 19.9792C12.9375 19.4375 12.8333 18.4375 13.3542 17.7708C13.8958 17.1042 14.875 16.9792 15.5417 17.5208L22.0625 22.7292C23.6458 24 26.3333 24 27.9167 22.7292L34.4375 17.5208C35.1042 16.9792 36.1042 17.0833 36.625 17.7708C37.1667 18.4375 37.0625 19.4375 36.3958 19.9792Z" fill="#386FA4"/>
</svg>
