<svg width="42" height="36" viewBox="0 0 42 36" fill="none" xmlns="http://www.w3.org/2000/svg">
<path d="M31.4167 0.291668H10.5833C4.33332 0.291668 0.166656 3.41667 0.166656 10.7083V25.2917C0.166656 32.5833 4.33332 35.7083 10.5833 35.7083H31.4167C37.6667 35.7083 41.8333 32.5833 41.8333 25.2917V10.7083C41.8333 3.41667 37.6667 0.291668 31.4167 0.291668ZM32.3958 12.9792L25.875 18.1875C24.5 19.2917 22.75 19.8333 21 19.8333C19.25 19.8333 17.4792 19.2917 16.125 18.1875L9.60416 12.9792C8.93749 12.4375 8.83332 11.4375 9.35416 10.7708C9.89582 10.1042 10.875 9.97917 11.5417 10.5208L18.0625 15.7292C19.6458 17 22.3333 17 23.9167 15.7292L30.4375 10.5208C31.1042 9.97917 32.1042 10.0833 32.625 10.7708C33.1667 11.4375 33.0625 12.4375 32.3958 12.9792Z" fill="#386FA4"/>
</svg>
